<svg width="20" height="20" viewBox="0 0 20 20" fill="none" xmlns="http://www.w3.org/2000/svg">
    <defs>
        <radialGradient id="official-gradient" cx="100%" cy="0%" r="146.783%" fx="100%" fy="0%" gradientTransform="matrix(-.68128 .68128 -.73202 -.63405 1.681 -.681)">
            <stop offset="0%" stop-color="#0ABF4B"/>
            <stop offset="49.996%" stop-color="#11D77B"/>
            <stop offset="100%" stop-color="#11D0C9"/>
        </radialGradient>
    </defs>
    <path d="M8.498 0l-2.33 1.804-2.922-.06-.847 2.858L0 6.309l.959 2.822L0 11.952l2.399 1.707.847 2.859 2.922-.06 2.33 1.804 2.33-1.804 2.922.06.847-2.859 2.399-1.707-.959-2.821.959-2.822-2.399-1.707-.847-2.858-2.922.06z" transform="matrix(1 0 0 -1 2 19.262)" fill="url(#official-gradient)"/>
    <path fill-rule="nonzero" d="M7.242 8.891a.451.451 0 00-.645 0l-.543.555a.46.46 0 000 .643l2.82 2.882.187-.177-.179-.19-.187.182.425.435a.83.83 0 001.187 0l1.999-2.043 2.64-2.698a.46.46 0 000-.643l-.187.183.187-.183-.543-.555a.451.451 0 00-.645 0l-2.82 2.881.18.184.188-.182-.187-.183-1.405 1.435-2.472-2.526z" fill="#FFF"/>
</svg>
