<svg width="21" height="20" viewBox="0 0 21 20" fill="none" xmlns="http://www.w3.org/2000/svg">
    <path fill-rule="evenodd" clip-rule="evenodd" d="M5.941 10.154h8.993c.162 0 .294.132.294.294v9.168a.295.295 0 01-.397.277l-4.291-1.586a.294.294 0 00-.205 0l-4.292 1.586a.295.295 0 01-.397-.277v-9.168c0-.162.132-.294.295-.294z" fill="#08B700"/>
    <path fill-rule="evenodd" clip-rule="evenodd" d="M16.475 14.864H4.4a.902.902 0 01-.9-.9V1.9c0-.494.405-.899.9-.899h12.075c.495 0 .9.405.9.9v12.064c0 .495-.405.9-.9.9z" fill="#FFC800"/>
    <path d="M3.5 1h13.87L10.5 7.99l-7 6.87V1z" fill="#fff" fill-opacity=".23"/>
    <path fill-rule="evenodd" clip-rule="evenodd" d="M11.367 6.997l-.908-.198c-.787-.175-1.155-.446-1.155-.906 0-.399.452-.844 1.156-.844.505 0 .964.26 1.12.611.06.134.194.221.343.221h.927a.325.325 0 00.31-.388v-.005c-.103-.535-.362-1.014-.74-1.345-.502-.442-1.188-.675-1.985-.675-.813 0-1.5.23-1.986.667-.5.449-.764 1.088-.764 1.849 0 .594.153 1.052.48 1.442.298.353.752.585 1.43.73l.93.21c.861.194 1.224.45 1.212.91-.013.537-.738.867-1.211.867h-.027c-.354 0-1.016-.114-1.265-.653a.378.378 0 00-.341-.22h-1a.326.326 0 00-.314.373l.002.01c.202 1.339 1.213 2.076 2.844 2.076.894 0 1.635-.24 2.143-.695.506-.453.773-1.113.773-1.909 0-1.163-.608-1.82-1.974-2.128z" fill="#FFFAF0"/>
</svg>
